HIERARCHY
ROOT SpineBase
{
  OFFSET 0.000000 0.000000 0.000000
  CHANNELS 6 Xposition Yposition Zposition Zrotation Xrotation Yrotation
  JOINT SpineMid
  {
    OFFSET 0.000000 34.357603 0.000000
    CHANNELS 3 Zrotation Xrotation Yrotation
    JOINT SpineShoulder
    {
      OFFSET 0.154958 25.464838 -1.035691
      CHANNELS 3 Zrotation Xrotation Yrotation
      JOINT Neck
      {
        OFFSET 0.098157 8.418025 -0.744114
        CHANNELS 3 Zrotation Xrotation Yrotation
        JOINT Head
        {
          OFFSET 0.035994 11.517178 5.458725
          CHANNELS 3 Zrotation Xrotation Yrotation
          End Site
          {
            OFFSET 0 0 0
          }
        }
      }
      JOINT ShoulderLeft
      {
        OFFSET 2.253713 -4.425650 -12.359094
        CHANNELS 3 Zrotation Xrotation Yrotation
        JOINT ElbowLeft
        {
          OFFSET 15.698714 -21.473332 -5.906137
          CHANNELS 3 Zrotation Xrotation Yrotation
          JOINT WristLeft
          {
            OFFSET 7.126406 -22.257996 3.622995
            CHANNELS 3 Zrotation Xrotation Yrotation
            JOINT HandLeft
            {
              OFFSET 0.492379 -6.687586 2.135395
              CHANNELS 3 Zrotation Xrotation Yrotation
              JOINT HandTipLeft
              {
                OFFSET 0.783114 -5.903967 0.183170
                CHANNELS 3 Zrotation Xrotation Yrotation
                End Site
                {
                  OFFSET 0 0 0
                }
              }
              JOINT ThumbLeft
              {
                OFFSET -0.805078 0.085263 -2.120357
                CHANNELS 3 Zrotation Xrotation Yrotation
                End Site
                {
                  OFFSET 0 0 0
                }
              }
            }
          }
        }
      }
      JOINT ShoulderRight
      {
        OFFSET 11.345215 -5.271340 -15.724376
        CHANNELS 3 Zrotation Xrotation Yrotation
        JOINT ElbowRight
        {
          OFFSET 7.458308 -22.424155 -2.376386
          CHANNELS 3 Zrotation Xrotation Yrotation
          JOINT WristRight
          {
            OFFSET 6.051601 -21.992226 4.460722
            CHANNELS 3 Zrotation Xrotation Yrotation
            JOINT HandRight
            {
              OFFSET 0.466771 -5.922111 1.443899
              CHANNELS 3 Zrotation Xrotation Yrotation
              JOINT HandTipRight
              {
                OFFSET 2.047348 -4.275600 -0.406167
                CHANNELS 3 Zrotation Xrotation Yrotation
                End Site
                {
                  OFFSET 0 0 0
                }
              }
              JOINT ThumbRight
              {
                OFFSET 2.872458 -0.008284 -2.311678
                CHANNELS 3 Zrotation Xrotation Yrotation
                End Site
                {
                  OFFSET 0 0 0
                }
              }
            }
          }
        }
      }
    }
  }
  JOINT HipLeft
  {
    OFFSET -5.105473 1.874837 -6.017291
    CHANNELS 3 Zrotation Xrotation Yrotation
    JOINT KneeLeft
    {
      OFFSET 21.339963 -25.719014 -8.692556
      CHANNELS 3 Zrotation Xrotation Yrotation
      JOINT AnkleLeft
      {
        OFFSET -3.140571 -36.274058 -3.813866
        CHANNELS 3 Zrotation Xrotation Yrotation
        JOINT FootLeft
        {
          OFFSET 2.523505 -5.861155 0.746972
          CHANNELS 3 Zrotation Xrotation Yrotation
          End Site
          {
            OFFSET 0 0 0
          }
        }
      }
    }
  }
  JOINT HipRight
  {
    OFFSET 5.964487 1.220701 -1.354879
    CHANNELS 3 Zrotation Xrotation Yrotation
    JOINT KneeRight
    {
      OFFSET -1.912130 -31.667999 7.315623
      CHANNELS 3 Zrotation Xrotation Yrotation
      JOINT AnkleRight
      {
        OFFSET 14.798409 -34.121101 -23.485518
        CHANNELS 3 Zrotation Xrotation Yrotation
        JOINT FootRight
        {
          OFFSET -6.449138 -1.207272 -0.837536
          CHANNELS 3 Zrotation Xrotation Yrotation
          End Site
          {
            OFFSET 0 0 0
          }
        }
      }
    }
  }
}
MOTION
Frames: 10
Frame Time: 0.033333
-29.241154 79.914603 244.639573 -0.134271 0.561121 -25.444095 0.022353 0.542683 25.444955 0.045588 0.363209 -0.000437 -0.533024 0.696242 0.164144 0.000000 0.000000 0.000000 -3.464744 -2.234482 0.200487 4.405291 1.353458 0.002994 -7.004230 -2.694907 -2.562016 15.247800 9.930292 2.151993 0.000000 0.000000 0.000000 0.000000 0.000000 0.000000 -4.519846 -2.134183 0.085331 4.873822 1.429574 0.044260 -5.955851 1.136461 -1.478947 -20.866570 -4.888432 1.015070 0.000000 0.000000 0.000000 0.000000 0.000000 0.000000 0.782013 0.568556 25.779964 0.618759 -0.577729 -0.488618 0.986012 11.491382 5.286803 0.000000 0.000000 0.000000 0.362331 -0.449003 25.446172 -4.068915 -7.336111 -0.686025 -64.907211 -3.358611 24.437215 0.000000 0.000000 0.000000
-29.427167 79.854055 244.381450 -0.328985 0.872850 -25.769614 0.141817 0.438805 25.767191 0.096867 0.276970 -0.001083 -0.410329 1.114642 0.151303 0.000000 0.000000 0.000000 -3.649310 -2.507428 0.118681 3.564527 1.011890 -0.265728 -6.163897 -4.092897 -2.473212 15.623197 13.002747 1.981031 0.000000 0.000000 0.000000 0.000000 0.000000 0.000000 -3.723487 -3.341980 -0.382179 3.153128 4.283974 0.775637 -5.765455 -8.730872 -3.139836 -16.454678 3.720271 5.078329 0.000000 0.000000 0.000000 0.000000 0.000000 0.000000 1.322846 0.109438 25.799938 0.493935 -0.439567 -0.157951 1.537760 11.930892 5.357119 0.000000 0.000000 0.000000 -1.026567 -0.778162 25.349570 -2.280828 -7.724663 -0.284551 -63.346958 -8.615750 29.713811 0.000000 0.000000 0.000000
-29.741012 79.872334 244.051552 -0.608797 1.336353 -26.367813 0.287838 0.310496 26.361835 0.166448 0.174774 -0.003553 -0.419115 1.017818 0.231325 0.000000 0.000000 0.000000 -3.836720 -2.653790 0.227064 3.844327 -0.279442 -0.787113 -6.569964 -7.122606 -2.620056 16.261398 20.228918 1.521803 0.000000 0.000000 0.000000 0.000000 0.000000 0.000000 -3.815412 -2.880705 -0.126598 3.235690 3.588765 0.510533 -11.331111 -12.902928 -5.757922 -10.512652 8.608522 7.993814 0.000000 0.000000 0.000000 0.000000 0.000000 0.000000 2.314072 -0.422229 25.912523 0.174386 -0.213886 0.360228 3.297441 4.172683 2.195758 0.000000 0.000000 0.000000 -0.818030 -0.978099 25.891227 -1.341760 -6.879113 -0.210078 -66.277323 -7.586517 26.814326 0.000000 0.000000 0.000000
-30.155303 79.920044 243.415809 -0.939353 1.950198 -27.881848 0.400577 0.195179 27.872737 0.224097 0.057343 -0.011327 -0.475369 0.792553 0.384184 0.000000 0.000000 0.000000 -4.211462 -3.046837 0.327952 3.817480 -1.666137 -1.481950 -7.921569 -7.292051 -2.822361 20.020014 23.848421 1.285341 0.000000 0.000000 0.000000 0.000000 0.000000 0.000000 -5.163246 -1.090521 0.794270 5.418732 -0.981822 -0.842268 -14.606844 -15.582967 -6.663514 -6.386961 14.394182 9.744333 0.000000 0.000000 0.000000 0.000000 0.000000 0.000000 3.904347 -1.088798 26.605034 -0.463808 0.044370 1.265743 2.946371 7.020724 3.026992 0.000000 0.000000 0.000000 0.571817 -1.334462 27.615670 -0.786798 -4.782125 -0.397156 -69.317526 -1.304611 18.106552 0.000000 0.000000 0.000000
-31.491151 79.999320 242.366242 -2.036398 3.126339 -29.831836 0.477171 0.041017 29.812523 0.261894 -0.094628 -0.063090 0.293089 -0.536391 0.638288 0.000000 0.000000 0.000000 -3.745436 -3.766815 0.631646 3.710498 -3.205799 -2.331495 -11.365426 -5.763914 -3.443235 19.410452 19.588882 3.115577 0.000000 0.000000 0.000000 0.000000 0.000000 0.000000 -6.166241 1.607555 2.423924 9.523266 -9.005208 -2.430954 -16.094257 -15.992597 -5.518835 -6.775945 16.402968 9.284236 0.000000 0.000000 0.000000 0.000000 0.000000 0.000000 8.001131 -1.559537 26.908503 -1.756921 -0.074403 3.135171 0.143904 19.605683 7.562204 0.000000 0.000000 0.000000 4.738544 -1.498070 30.314359 -1.425810 -1.338992 -1.093910 -69.040258 7.236927 6.420663 0.000000 0.000000 0.000000
-31.650810 80.028672 241.057431 -2.029310 4.019943 -30.957603 0.474518 -0.062681 30.946981 0.251510 -0.191563 -0.069640 -0.188329 -1.184953 0.883272 0.000000 0.000000 0.000000 -4.661390 -4.808156 0.528386 4.350005 -4.586516 -2.996882 -13.883026 -0.390767 -2.594038 26.645163 -4.484681 2.939410 0.000000 0.000000 0.000000 0.000000 0.000000 0.000000 -9.622649 4.181262 4.121940 16.388593 -18.252161 -3.082326 -13.975848 -15.313526 -2.362969 -6.792141 17.563482 5.559597 0.000000 0.000000 0.000000 0.000000 0.000000 0.000000 9.533596 -3.091951 26.997788 -2.311903 -0.095153 4.520259 -6.775317 38.463196 17.561003 0.000000 0.000000 0.000000 6.928748 -2.753152 31.936181 -0.410284 2.869519 -1.708217 -63.459609 14.939875 -7.498706 0.000000 0.000000 0.000000
-30.828746 80.003820 239.646637 -1.127863 4.653703 -31.420062 0.372386 -0.116468 31.411845 0.196209 -0.239986 -0.039829 -1.191569 -1.900375 0.904127 0.000000 0.000000 0.000000 -6.922664 -5.880715 0.289328 5.836367 -5.795084 -3.648259 -16.008032 9.793641 -0.098134 34.429464 -13.628345 6.587988 0.000000 0.000000 0.000000 0.000000 0.000000 0.000000 -15.020446 7.066273 6.173580 27.595957 -30.829641 -1.430069 -6.528798 -13.780909 2.883624 -22.598035 20.803260 7.401705 0.000000 0.000000 0.000000 0.000000 0.000000 0.000000 9.395886 -5.289893 26.758156 -3.072471 0.861471 5.568582 -23.432474 54.583615 36.857395 0.000000 0.000000 0.000000 7.592158 -4.666293 32.722818 1.539176 7.163491 -2.399509 -54.929110 18.913594 -21.535006 0.000000 0.000000 0.000000
-29.129198 79.873766 238.762860 0.558019 4.746428 -31.086369 0.335062 -0.165429 31.077506 0.146469 -0.290579 0.035924 -3.403778 -1.309073 0.978560 0.000000 0.000000 0.000000 -9.991797 -6.458594 -0.118909 7.865128 -6.585873 -3.994154 -17.095664 18.468689 2.539527 40.258907 -15.730244 10.567007 0.000000 0.000000 0.000000 0.000000 0.000000 0.000000 -21.005405 9.690986 8.072875 39.153172 -40.471293 2.614674 -2.732006 -8.323962 5.590757 -19.997339 21.020892 0.634185 0.000000 0.000000 0.000000 0.000000 0.000000 0.000000 7.277855 -7.044541 26.469038 -4.409086 2.034001 5.736947 -45.189959 61.006976 61.014350 0.000000 0.000000 0.000000 6.851252 -6.788316 32.547675 3.718365 10.990164 -3.168653 -46.823818 19.545087 -33.303263 0.000000 0.000000 0.000000
-27.020204 79.677047 237.396585 2.861725 4.276087 -30.136221 0.211716 -0.161699 30.135645 0.048883 -0.282439 0.136194 -5.610379 -0.694401 0.786873 0.000000 0.000000 0.000000 -12.960817 -6.792722 -0.823745 9.272084 -6.754974 -3.902671 -19.727844 29.842656 6.139567 45.451740 -25.704810 17.294388 0.000000 0.000000 0.000000 0.000000 0.000000 0.000000 -25.972707 10.002818 8.464376 46.561371 -42.807266 5.487516 0.838497 -1.732062 6.019555 -19.965950 9.404698 -7.604296 0.000000 0.000000 0.000000 0.000000 0.000000 0.000000 2.994222 -8.401549 26.255686 -5.192519 4.019073 4.870084 -57.988281 60.835719 75.965940 0.000000 0.000000 0.000000 4.866271 -8.924953 31.584455 5.537735 13.784840 -3.840873 -39.985496 18.699099 -41.917047 0.000000 0.000000 0.000000
-24.618654 79.483245 236.222477 5.600924 3.315609 -28.519886 0.162074 -0.114910 28.581613 -0.039534 -0.206763 0.263101 -8.311398 0.217766 0.570895 0.000000 0.000000 0.000000 -16.213079 -6.865006 -1.698162 10.776735 -6.397849 -3.463268 -20.904773 35.256263 8.132140 48.574358 -31.230226 21.259503 0.000000 0.000000 0.000000 0.000000 0.000000 0.000000 -29.935470 9.357649 7.930032 48.460454 -40.489560 5.463708 -0.500973 2.059125 5.497460 -17.298616 4.566969 -9.603716 0.000000 0.000000 0.000000 0.000000 0.000000 0.000000 -3.313676 -8.890699 26.236768 -5.185180 6.286792 2.831410 -61.619836 57.888548 80.027358 0.000000 0.000000 0.000000 1.499165 -10.851122 29.691642 6.884368 15.424155 -4.049692 -34.617245 17.811878 -47.693690 0.000000 0.000000 0.000000
